<svg width="121" height="121" viewBox="0 0 121 121" fill="none" xmlns="http://www.w3.org/2000/svg">
<circle cx="60.5" cy="60.5" r="60.5" fill="#111111"/>
<path d="M41.1364 84L48.8636 37.4545H67.2273C70.7424 37.4545 73.6288 38.1288 75.8864 39.4773C78.1591 40.8106 79.75 42.6667 80.6591 45.0455C81.5833 47.4091 81.7955 50.1364 81.2955 53.2273C80.7803 56.3333 79.6591 59.0682 77.9318 61.4318C76.2197 63.7803 73.9924 65.6136 71.25 66.9318C68.5076 68.25 65.3409 68.9091 61.75 68.9091H50.0455L51.3409 61.0227H61.4545C63.3636 61.0227 64.9924 60.697 66.3409 60.0455C67.7045 59.3788 68.7879 58.4621 69.5909 57.2955C70.3939 56.1136 70.9167 54.7576 71.1591 53.2273C71.4167 51.6667 71.3333 50.3106 70.9091 49.1591C70.4848 48.0076 69.7045 47.1136 68.5682 46.4773C67.447 45.8258 65.9394 45.5 64.0455 45.5H57.4091L50.9773 84H41.1364Z" fill="white"/>
</svg>
